<svg width="16" height="14" viewBox="0 0 16 14" fill="none" xmlns="http://www.w3.org/2000/svg">
  <path
    d="M10 6H14C14.2652 6 14.5196 5.89464 14.7071 5.70711C14.8946 5.51957 15 5.26522 15 5V2C15 1.73478 14.8946 1.48043 14.7071 1.29289C14.5196 1.10536 14.2652 1 14 1H11C10.7348 1 10.4804 1.10536 10.2929 1.29289C10.1054 1.48043 10 1.73478 10 2V8C10 10.6667 11.3333 12.3333 14 13M1 6H5C5.26522 6 5.51957 5.89464 5.70711 5.70711C5.89464 5.51957 6 5.26522 6 5V2C6 1.73478 5.89464 1.48043 5.70711 1.29289C5.51957 1.10536 5.26522 1 5 1H2C1.73478 1 1.48043 1.10536 1.29289 1.29289C1.10536 1.48043 1 1.73478 1 2V8C1 10.6667 2.33333 12.3333 5 13"
    stroke="#FCFCFE" stroke-width="2" stroke-linecap="round" stroke-linejoin="round" />
</svg>