<svg width="670" height="288" viewBox="0 0 670 288" fill="none" xmlns="http://www.w3.org/2000/svg">
	<path d="M91.6238 104.812L177.824 222.512H120.024L63.1238 143.712L46.0238 167.112V222.512H0.423828V0.211792H46.0238V93.9118L111.824 0.211792H168.424L91.6238 104.812Z" fill="#006F77"/>
	<path d="M469.525 128.812C463.625 134.312 457.425 138.812 451.125 142.112L494.425 222.412H442.825L410.525 162.512C408.525 158.912 405.925 156.112 402.625 154.112C399.325 152.012 395.725 150.912 391.825 150.712H369.325V222.412H323.725V0.211792H416.225C426.325 0.211792 435.925 2.11178 445.125 5.81178C454.325 9.61178 462.425 15.0118 469.525 22.1118C476.625 29.2118 482.025 37.4118 485.825 46.5118C489.625 55.7118 491.425 65.3118 491.425 75.4118C491.425 85.5118 489.525 95.1118 485.825 104.312C482.025 113.612 476.625 121.712 469.525 128.812ZM369.325 105.112H416.125C424.425 105.112 431.425 102.212 437.125 96.5118C442.825 90.8118 445.725 83.8118 445.725 75.5118C445.725 67.2118 442.825 60.2118 437.125 54.5118C431.425 48.8118 424.425 45.9118 416.125 45.9118H369.325V105.112Z" fill="#006F77"/>
	<path d="M515.123 0.211792H669.523V45.8118H560.823V88.5118H658.623V134.112H560.823V222.412H515.223V0.211792H515.123Z" fill="#006F77"/>
	<path d="M238.223 0.211792H192.723V222.512H238.223V0.211792Z" fill="black"/>
	<path d="M238.323 176.812V134.212H309.123V88.5118H238.323V45.9118H309.123V0.211792H192.723V222.512H309.123V176.812H238.323Z" fill="#006F77"/>
	<path d="M309.09 134.143L309.09 88.6431L120.99 88.6424L120.99 134.142L309.09 134.143Z" fill="#3AB3C1"/>
	<path d="M238.223 0.211792H192.723V222.512H238.223V0.211792Z" fill="#3AB3C1"/>
	<path d="M162.723 282.312H157.823L153.123 263.112H156.423L160.223 279.912H160.623L164.523 263.612H169.023L172.923 279.912H173.323L177.123 263.112H180.423L175.723 282.312H170.823L167.623 268.712L167.023 266.012H166.723L166.123 268.712L162.723 282.312Z" fill="black"/>
	<path d="M193.224 282.712C190.324 282.712 188.124 282.012 186.624 280.612C185.124 279.212 184.424 277.112 184.424 274.512V271.112C184.424 268.412 185.124 266.312 186.524 264.912C187.924 263.412 189.924 262.712 192.524 262.712C194.324 262.712 195.824 263.012 197.024 263.712C198.224 264.412 199.124 265.312 199.724 266.512C200.324 267.712 200.624 269.212 200.624 270.912V271.612C200.624 272.012 200.624 272.412 200.624 272.912C200.624 273.312 200.524 273.712 200.524 274.112H197.624C197.624 273.512 197.624 272.912 197.624 272.312C197.624 271.712 197.624 271.212 197.624 270.712C197.624 269.512 197.424 268.612 197.024 267.712C196.624 266.912 196.124 266.312 195.324 265.912C194.624 265.512 193.624 265.312 192.524 265.312C190.924 265.312 189.624 265.812 188.824 266.712C188.024 267.712 187.624 269.012 187.624 270.812V272.612V273.012V274.812C187.624 275.612 187.724 276.312 188.024 277.012C188.224 277.612 188.624 278.212 189.124 278.712C189.624 279.212 190.224 279.512 191.024 279.812C191.824 280.112 192.724 280.212 193.824 280.212C195.024 280.212 196.224 280.012 197.324 279.712C198.424 279.412 199.424 278.912 200.324 278.412L200.024 281.112C199.124 281.612 198.224 282.112 197.024 282.412C195.924 282.612 194.624 282.712 193.224 282.712ZM199.724 274.012H186.124V271.612H199.724V274.012Z" fill="black"/>
	<path d="M219.923 282.312H216.723V256.312H219.923V282.312Z" fill="black"/>
	<path d="M228.023 260.012C227.323 260.012 226.923 259.812 226.523 259.512C226.223 259.212 226.023 258.712 226.023 258.112V258.012C226.023 257.412 226.223 256.912 226.523 256.612C226.823 256.312 227.323 256.112 228.023 256.112C228.723 256.112 229.123 256.312 229.523 256.612C229.823 256.912 230.023 257.412 230.023 258.012V258.112C230.023 258.712 229.823 259.212 229.523 259.512C229.223 259.812 228.723 260.012 228.023 260.012ZM229.623 282.312H226.423V263.112H229.623V282.312Z" fill="black"/>
	<path d="M242.124 282.712C240.624 282.712 239.224 282.512 238.124 282.212C236.924 281.912 236.024 281.512 235.224 281.112L234.924 278.212C235.924 278.712 236.924 279.112 238.124 279.512C239.224 279.912 240.524 280.012 242.024 280.012C243.524 280.012 244.624 279.812 245.324 279.312C246.024 278.812 246.424 278.112 246.424 277.212V277.012C246.424 276.412 246.324 275.912 246.024 275.512C245.724 275.112 245.224 274.812 244.524 274.512C243.824 274.212 242.724 273.912 241.424 273.612C239.824 273.212 238.524 272.812 237.624 272.412C236.724 271.912 236.024 271.312 235.624 270.612C235.224 269.912 235.024 269.012 235.024 268.012V267.812C235.024 266.112 235.624 264.912 236.724 264.012C237.924 263.112 239.624 262.712 242.024 262.712C243.524 262.712 244.824 262.912 245.924 263.212C247.024 263.512 247.924 263.912 248.624 264.312L248.924 267.012C248.024 266.512 247.124 266.112 246.024 265.812C244.924 265.512 243.724 265.312 242.324 265.312C241.324 265.312 240.524 265.412 239.924 265.612C239.324 265.812 238.824 266.112 238.624 266.512C238.424 266.912 238.224 267.312 238.224 267.812V268.012C238.224 268.612 238.324 269.112 238.624 269.512C238.924 269.912 239.424 270.212 240.124 270.512C240.824 270.812 241.824 271.112 243.124 271.412C244.724 271.712 246.024 272.112 247.024 272.612C248.024 273.112 248.724 273.612 249.124 274.312C249.524 275.012 249.724 275.912 249.724 277.012V277.312C249.724 279.112 249.124 280.512 247.824 281.412C246.424 282.312 244.524 282.712 242.124 282.712Z" fill="black"/>
	<path d="M266.122 266.012H252.322V263.412H266.422L266.122 266.012ZM258.522 263.712H255.522V258.312L258.722 257.912L258.522 263.712ZM261.622 282.712C260.122 282.712 258.922 282.512 258.022 282.012C257.122 281.612 256.422 280.912 256.022 280.012C255.622 279.112 255.422 278.012 255.422 276.612V264.512H258.522V276.212C258.522 277.512 258.822 278.412 259.422 279.012C260.022 279.612 260.922 279.912 262.322 279.912C263.122 279.912 263.822 279.812 264.522 279.612C265.222 279.412 265.922 279.212 266.522 278.912L266.222 281.612C265.622 281.912 264.922 282.212 264.022 282.312C263.322 282.612 262.522 282.712 261.622 282.712Z" fill="black"/>
	<path d="M279.423 282.712C276.523 282.712 274.323 282.012 272.823 280.612C271.323 279.212 270.623 277.112 270.623 274.512V271.112C270.623 268.412 271.323 266.312 272.723 264.912C274.123 263.412 276.123 262.712 278.723 262.712C280.523 262.712 282.023 263.012 283.223 263.712C284.423 264.412 285.323 265.312 285.923 266.512C286.523 267.712 286.823 269.212 286.823 270.912V271.612C286.823 272.012 286.823 272.412 286.823 272.912C286.823 273.312 286.723 273.712 286.723 274.112H283.623C283.623 273.512 283.623 272.912 283.623 272.312C283.623 271.712 283.623 271.212 283.623 270.712C283.623 269.512 283.423 268.612 283.023 267.712C282.623 266.912 282.123 266.312 281.323 265.912C280.623 265.512 279.623 265.312 278.523 265.312C276.923 265.312 275.623 265.812 274.823 266.712C274.023 267.712 273.623 269.012 273.623 270.812V272.612V273.012V274.812C273.623 275.612 273.723 276.312 274.023 277.012C274.223 277.612 274.623 278.212 275.123 278.712C275.623 279.212 276.223 279.512 277.023 279.812C277.823 280.112 278.723 280.212 279.823 280.212C281.023 280.212 282.223 280.012 283.323 279.712C284.423 279.412 285.423 278.912 286.323 278.412L286.023 281.112C285.123 281.612 284.223 282.112 283.023 282.412C282.023 282.612 280.823 282.712 279.423 282.712ZM285.923 274.012H272.323V271.612H285.923V274.012Z" fill="black"/>
	<path d="M295.423 282.312H292.223V263.112H295.423L295.323 267.712L295.423 267.912V282.312ZM308.223 282.312H305.023V270.412C305.023 269.412 304.923 268.512 304.623 267.712C304.323 267.012 303.923 266.412 303.223 266.012C302.623 265.612 301.723 265.412 300.623 265.412C299.623 265.412 298.723 265.612 298.023 266.012C297.323 266.412 296.723 266.912 296.223 267.512C295.723 268.112 295.423 268.912 295.223 269.712L294.623 267.412H295.323C295.523 266.512 295.923 265.712 296.423 265.012C296.923 264.312 297.623 263.712 298.523 263.312C299.423 262.912 300.523 262.712 301.723 262.712C303.223 262.712 304.423 263.012 305.423 263.612C306.323 264.212 307.023 265.012 307.523 266.112C307.923 267.212 308.123 268.512 308.123 270.112V282.312H308.223Z" fill="black"/>
	<path d="M314.023 277.012H317.123C317.123 277.212 317.223 277.612 317.223 278.012C317.223 278.412 317.323 278.812 317.323 279.312C317.323 280.912 317.123 282.312 316.623 283.712C316.123 285.112 315.423 286.312 314.423 287.612L312.223 286.912C312.923 285.812 313.423 284.712 313.723 283.512C314.023 282.312 314.223 281.012 314.223 279.512C314.223 279.112 314.223 278.712 314.223 278.312C314.123 277.812 314.023 277.412 314.023 277.012Z" fill="black"/>
	<path d="M341.723 282.312H336.823L332.123 263.112H335.423L339.223 279.912H339.623L343.523 263.612H348.023L351.923 279.912H352.323L356.123 263.112H359.423L354.723 282.312H349.823L346.623 268.712L346.023 266.012H345.723L345.123 268.712L341.723 282.312Z" fill="black"/>
	<path d="M372.224 282.712C369.324 282.712 367.124 282.012 365.624 280.612C364.124 279.212 363.424 277.112 363.424 274.512V271.112C363.424 268.412 364.124 266.312 365.524 264.912C366.924 263.412 368.924 262.712 371.524 262.712C373.324 262.712 374.824 263.012 376.024 263.712C377.224 264.412 378.124 265.312 378.724 266.512C379.324 267.712 379.624 269.212 379.624 270.912V271.612C379.624 272.012 379.624 272.412 379.624 272.912C379.624 273.312 379.524 273.712 379.524 274.112H376.624C376.624 273.512 376.624 272.912 376.624 272.312C376.624 271.712 376.624 271.212 376.624 270.712C376.624 269.512 376.424 268.612 376.024 267.712C375.624 266.912 375.124 266.312 374.324 265.912C373.624 265.512 372.624 265.312 371.524 265.312C369.924 265.312 368.624 265.812 367.824 266.712C367.024 267.712 366.624 269.012 366.624 270.812V272.612V273.012V274.812C366.624 275.612 366.724 276.312 367.024 277.012C367.224 277.612 367.624 278.212 368.124 278.712C368.624 279.212 369.224 279.512 370.024 279.812C370.824 280.012 371.724 280.212 372.824 280.212C374.024 280.212 375.224 280.012 376.324 279.712C377.424 279.412 378.424 278.912 379.324 278.412L379.024 281.112C378.124 281.612 377.224 282.112 376.024 282.412C374.824 282.612 373.624 282.712 372.224 282.712ZM378.724 274.012H365.124V271.612H378.724V274.012Z" fill="black"/>
	<path d="M403.024 282.712C400.324 282.712 398.224 282.012 396.924 280.512C395.624 279.012 394.924 276.912 394.924 274.212V271.212C394.924 268.512 395.624 266.412 396.924 264.912C398.224 263.412 400.324 262.712 403.024 262.712C403.824 262.712 404.624 262.812 405.224 262.912C405.924 263.112 406.524 263.212 407.024 263.512C407.524 263.712 408.024 264.012 408.324 264.312L408.624 267.112C408.024 266.612 407.324 266.212 406.424 265.912C405.624 265.612 404.624 265.412 403.424 265.412C401.624 265.412 400.224 265.912 399.324 266.912C398.424 267.912 398.024 269.412 398.024 271.312V274.112C398.024 276.012 398.424 277.512 399.324 278.512C400.224 279.512 401.624 280.012 403.424 280.012C404.624 280.012 405.624 279.812 406.524 279.512C407.424 279.212 408.124 278.812 408.824 278.312L408.524 281.112C407.924 281.512 407.224 281.912 406.224 282.212C405.324 282.612 404.224 282.712 403.024 282.712Z" fill="black"/>
	<path d="M418.623 282.712C416.723 282.712 415.223 282.212 414.223 281.312C413.223 280.412 412.723 279.112 412.723 277.312V276.712C412.723 274.912 413.223 273.612 414.323 272.712C415.423 271.812 417.123 271.212 419.523 270.912L425.623 270.012L425.823 272.312L419.923 273.112C418.423 273.312 417.423 273.712 416.823 274.212C416.223 274.712 415.923 275.412 415.923 276.412V276.712C415.923 277.712 416.223 278.512 416.823 279.012C417.423 279.512 418.423 279.812 419.623 279.812C420.723 279.812 421.623 279.612 422.423 279.212C423.223 278.812 423.823 278.312 424.323 277.712C424.823 277.112 425.123 276.312 425.323 275.612L425.823 277.812H425.223C425.023 278.612 424.723 279.412 424.223 280.112C423.723 280.812 423.023 281.412 422.123 281.812C421.223 282.512 420.023 282.712 418.623 282.712ZM428.423 282.312H425.223L425.323 277.612L425.223 277.112V271.012V269.912C425.223 268.312 424.823 267.212 424.023 266.412C423.223 265.612 422.023 265.312 420.223 265.312C418.823 265.312 417.623 265.512 416.423 265.912C415.223 266.312 414.223 266.812 413.323 267.312L413.623 264.612C414.123 264.312 414.723 264.012 415.423 263.712C416.123 263.412 416.923 263.212 417.823 263.012C418.723 262.812 419.723 262.712 420.723 262.712C422.123 262.712 423.223 262.912 424.223 263.212C425.223 263.512 425.923 264.012 426.523 264.612C427.123 265.212 427.523 266.012 427.823 266.912C428.123 267.812 428.223 268.812 428.223 269.912V282.312H428.423Z" fill="black"/>
	<path d="M437.624 282.312H434.424V263.112H437.524L437.324 268.812L437.524 269.012V282.312H437.624ZM437.524 270.612L436.824 268.112H437.624C438.024 266.512 438.724 265.212 439.824 264.312C440.824 263.412 442.224 262.912 443.924 262.912C444.324 262.912 444.724 262.912 445.024 263.012C445.324 263.112 445.624 263.112 445.924 263.212L446.124 266.312C445.824 266.212 445.424 266.112 445.024 266.012C444.624 265.912 444.224 265.912 443.724 265.912C442.324 265.912 441.024 266.312 439.924 267.112C438.724 267.912 438.024 269.112 437.524 270.612Z" fill="black"/>
	<path d="M458.423 282.712C455.523 282.712 453.323 282.012 451.823 280.612C450.323 279.212 449.623 277.112 449.623 274.512V271.112C449.623 268.412 450.323 266.312 451.723 264.912C453.123 263.412 455.123 262.712 457.723 262.712C459.523 262.712 461.023 263.012 462.223 263.712C463.423 264.412 464.323 265.312 464.923 266.512C465.523 267.712 465.823 269.212 465.823 270.912V271.612C465.823 272.012 465.823 272.412 465.823 272.912C465.823 273.312 465.723 273.712 465.723 274.112H462.623C462.623 273.512 462.623 272.912 462.623 272.312C462.623 271.712 462.623 271.212 462.623 270.712C462.623 269.512 462.423 268.612 462.023 267.712C461.623 266.912 461.123 266.312 460.323 265.912C459.623 265.512 458.623 265.312 457.523 265.312C455.923 265.312 454.623 265.812 453.823 266.712C453.023 267.712 452.623 269.012 452.623 270.812V272.612V273.012V274.812C452.623 275.612 452.723 276.312 453.023 277.012C453.223 277.612 453.623 278.212 454.123 278.712C454.623 279.212 455.223 279.512 456.023 279.812C456.823 280.012 457.723 280.212 458.823 280.212C460.023 280.212 461.223 280.012 462.323 279.712C463.423 279.412 464.423 278.912 465.323 278.412L465.023 281.112C464.123 281.612 463.223 282.112 462.023 282.412C461.023 282.612 459.823 282.712 458.423 282.712ZM464.923 274.012H451.323V271.612H464.923V274.012Z" fill="black"/>
	</svg>
	