<svg width="22" height="25" viewBox="0 0 22 25" fill="none" xmlns="http://www.w3.org/2000/svg">
<path d="M22 2V23C22 23.55 21.8042 24.0208 21.4125 24.4125C21.0208 24.8042 20.55 25 20 25H17C16.7167 25 16.4792 24.9042 16.2875 24.7125C16.0958 24.5208 16 24.2833 16 24C16 23.7167 16.0958 23.4792 16.2875 23.2875C16.4792 23.0958 16.7167 23 17 23H20V2H8V8.5C8 8.78333 7.90417 9.02083 7.7125 9.2125C7.52083 9.40417 7.28333 9.5 7 9.5C6.71667 9.5 6.47917 9.40417 6.2875 9.2125C6.09583 9.02083 6 8.78333 6 8.5V1.95C6 1.41667 6.19167 0.958333 6.575 0.575C6.95833 0.191666 7.41667 0 7.95 0H20C20.55 0 21.0208 0.195833 21.4125 0.5875C21.8042 0.979167 22 1.45 22 2ZM0 16.025C0 15.6917 0.075 15.3833 0.225 15.1C0.375 14.8167 0.583333 14.5833 0.85 14.4L5.85 10.825C6.03333 10.6917 6.22083 10.5958 6.4125 10.5375C6.60417 10.4792 6.8 10.45 7 10.45C7.2 10.45 7.39583 10.4792 7.5875 10.5375C7.77917 10.5958 7.96667 10.6917 8.15 10.825L13.15 14.4C13.4167 14.5833 13.625 14.8167 13.775 15.1C13.925 15.3833 14 15.6917 14 16.025V23C14 23.55 13.8042 24.0208 13.4125 24.4125C13.0208 24.8042 12.55 25 12 25H10C9.45 25 8.97917 24.8042 8.5875 24.4125C8.5875 24.4125 8 23.55 8 23L10 25H4L6 23C6 23.55 5.80417 24.0208 5.4125 24.4125C5.02083 24.8042 4.55 25 4 25H2C1.45 25 0.979167 24.8042 0.5875 24.4125C0.195833 24.0208 0 23.55 0 23V16.025ZM2 16V23H4H4.5C4.5 23 5.45 23 6 23H8C8.55 23 9.5 23 10 23C10.3917 23.3917 10 23.45 10 24V23H12V16L7 12.45L2 16ZM16.5 13H17.5C17.6333 13 17.75 12.95 17.85 12.85C17.95 12.75 18 12.6333 18 12.5V11.5C18 11.3667 17.95 11.25 17.85 11.15C17.75 11.05 17.6333 11 17.5 11H16.5C16.3667 11 16.25 11.05 16.15 11.15C16.05 11.25 16 11.3667 16 11.5V12.5C16 12.6333 16.05 12.75 16.15 12.85C16.25 12.95 16.3667 13 16.5 13ZM16.5 17H17.5C17.6333 17 17.75 16.95 17.85 16.85C17.95 16.75 18 16.6333 18 16.5V15.5C18 15.3667 17.95 15.25 17.85 15.15C17.75 15.05 17.6333 15 17.5 15H16.5C16.3667 15 16.25 15.05 16.15 15.15C16.05 15.25 16 15.3667 16 15.5V16.5C16 16.6333 16.05 16.75 16.15 16.85C16.25 16.95 16.3667 17 16.5 17ZM16.5 21H17.5C17.6333 21 17.75 20.95 17.85 20.85C17.95 20.75 18 20.6333 18 20.5V19.5C18 19.3667 17.95 19.25 17.85 19.15C17.75 19.05 17.6333 19 17.5 19H16.5C16.3667 19 16.25 19.05 16.15 19.15C16.05 19.25 16 19.3667 16 19.5V20.5C16 20.6333 16.05 20.75 16.15 20.85C16.25 20.95 16.3667 21 16.5 21Z" fill="white"/>
<path d="M17.5 8H16.5C16.3667 8 16.25 7.95 16.15 7.85C16.05 7.75 16 7.63333 16 7.5V6.5C16 6.36667 16.05 6.25 16.15 6.15C16.25 6.05 16.3667 6 16.5 6H17.5C17.6333 6 17.75 6.05 17.85 6.15C17.95 6.25 18 6.36667 18 6.5V7.5C18 7.63333 17.95 7.75 17.85 7.85C17.75 7.95 17.6333 8 17.5 8Z" fill="white"/>
<path d="M12.5 8H11.5C11.3667 8 11.25 7.95 11.15 7.85C11.05 7.75 11 7.63333 11 7.5V6.5C11 6.36667 11.05 6.25 11.15 6.15C11.25 6.05 11.3667 6 11.5 6H12.5C12.6333 6 12.75 6.05 12.85 6.15C12.95 6.25 13 6.36667 13 6.5V7.5C13 7.63333 12.95 7.75 12.85 7.85C12.75 7.95 12.6333 8 12.5 8Z" fill="white"/>
<path d="M7.5 18H6.5C6.36667 18 6.25 17.95 6.15 17.85C6.05 17.75 6 17.6333 6 17.5V16.5C6 16.3667 6.05 16.25 6.15 16.15C6.25 16.05 6.36667 16 6.5 16H7.5C7.63333 16 7.75 16.05 7.85 16.15C7.95 16.25 8 16.3667 8 16.5V17.5C8 17.6333 7.95 17.75 7.85 17.85C7.75 17.95 7.63333 18 7.5 18Z" fill="white"/>
</svg>
