<svg width="122" height="156" viewBox="0 0 122 156" fill="none" xmlns="http://www.w3.org/2000/svg">
<g clip-path="url(#clip0_24_3)">
<path d="M33.2727 113.682V119.227C33.2727 119.978 32.9983 120.628 32.4496 121.177C31.9008 121.726 31.2509 122 30.5 122H24.9545C24.2036 122 23.5537 121.726 23.005 121.177C22.4562 120.628 22.1818 119.978 22.1818 119.227V113.682C22.1818 112.931 22.4562 112.281 23.005 111.732C23.5537 111.183 24.2036 110.909 24.9545 110.909H30.5C31.2509 110.909 31.9008 111.183 32.4496 111.732C32.9983 112.281 33.2727 112.931 33.2727 113.682ZM33.2727 91.5V97.0455C33.2727 97.7964 32.9983 98.4463 32.4496 98.995C31.9008 99.5438 31.2509 99.8182 30.5 99.8182H24.9545C24.2036 99.8182 23.5537 99.5438 23.005 98.995C22.4562 98.4463 22.1818 97.7964 22.1818 97.0455V91.5C22.1818 90.7491 22.4562 90.0992 23.005 89.5504C23.5537 89.0017 24.2036 88.7273 24.9545 88.7273H30.5C31.2509 88.7273 31.9008 89.0017 32.4496 89.5504C32.9983 90.0992 33.2727 90.7491 33.2727 91.5ZM55.4545 91.5V97.0455C55.4545 97.7964 55.1802 98.4463 54.6314 98.995C54.0826 99.5438 53.4328 99.8182 52.6818 99.8182H47.1364C46.3854 99.8182 45.7356 99.5438 45.1868 98.995C44.638 98.4463 44.3636 97.7964 44.3636 97.0455V91.5C44.3636 90.7491 44.638 90.0992 45.1868 89.5504C45.7356 89.0017 46.3854 88.7273 47.1364 88.7273H52.6818C53.4328 88.7273 54.0826 89.0017 54.6314 89.5504C55.1802 90.0992 55.4545 90.7491 55.4545 91.5ZM33.2727 69.3182V74.8636C33.2727 75.6146 32.9983 76.2644 32.4496 76.8132C31.9008 77.362 31.2509 77.6364 30.5 77.6364H24.9545C24.2036 77.6364 23.5537 77.362 23.005 76.8132C22.4562 76.2644 22.1818 75.6146 22.1818 74.8636V69.3182C22.1818 68.5672 22.4562 67.9174 23.005 67.3686C23.5537 66.8198 24.2036 66.5455 24.9545 66.5455H30.5C31.2509 66.5455 31.9008 66.8198 32.4496 67.3686C32.9983 67.9174 33.2727 68.5672 33.2727 69.3182ZM99.8182 113.682V119.227C99.8182 119.978 99.5438 120.628 98.995 121.177C98.4463 121.726 97.7964 122 97.0455 122H91.5C90.7491 122 90.0992 121.726 89.5504 121.177C89.0017 120.628 88.7273 119.978 88.7273 119.227V113.682C88.7273 112.931 89.0017 112.281 89.5504 111.732C90.0992 111.183 90.7491 110.909 91.5 110.909H97.0455C97.7964 110.909 98.4463 111.183 98.995 111.732C99.5438 112.281 99.8182 112.931 99.8182 113.682ZM77.6364 91.5V97.0455C77.6364 97.7964 77.362 98.4463 76.8132 98.995C76.2644 99.5438 75.6146 99.8182 74.8636 99.8182H69.3182C68.5672 99.8182 67.9174 99.5438 67.3686 98.995C66.8198 98.4463 66.5455 97.7964 66.5455 97.0455V91.5C66.5455 90.7491 66.8198 90.0992 67.3686 89.5504C67.9174 89.0017 68.5672 88.7273 69.3182 88.7273H74.8636C75.6146 88.7273 76.2644 89.0017 76.8132 89.5504C77.362 90.0992 77.6364 90.7491 77.6364 91.5ZM55.4545 69.3182V74.8636C55.4545 75.6146 55.1802 76.2644 54.6314 76.8132C54.0826 77.362 53.4328 77.6364 52.6818 77.6364H47.1364C46.3854 77.6364 45.7356 77.362 45.1868 76.8132C44.638 76.2644 44.3636 75.6146 44.3636 74.8636V69.3182C44.3636 68.5672 44.638 67.9174 45.1868 67.3686C45.7356 66.8198 46.3854 66.5455 47.1364 66.5455H52.6818C53.4328 66.5455 54.0826 66.8198 54.6314 67.3686C55.1802 67.9174 55.4545 68.5672 55.4545 69.3182ZM99.8182 91.5V97.0455C99.8182 97.7964 99.5438 98.4463 98.995 98.995C98.4463 99.5438 97.7964 99.8182 97.0455 99.8182H91.5C90.7491 99.8182 90.0992 99.5438 89.5504 98.995C89.0017 98.4463 88.7273 97.7964 88.7273 97.0455V91.5C88.7273 90.7491 89.0017 90.0992 89.5504 89.5504C90.0992 89.0017 90.7491 88.7273 91.5 88.7273H97.0455C97.7964 88.7273 98.4463 89.0017 98.995 89.5504C99.5438 90.0992 99.8182 90.7491 99.8182 91.5ZM77.6364 69.3182V74.8636C77.6364 75.6146 77.362 76.2644 76.8132 76.8132C76.2644 77.362 75.6146 77.6364 74.8636 77.6364H69.3182C68.5672 77.6364 67.9174 77.362 67.3686 76.8132C66.8198 76.2644 66.5455 75.6146 66.5455 74.8636V69.3182C66.5455 68.5672 66.8198 67.9174 67.3686 67.3686C67.9174 66.8198 68.5672 66.5455 69.3182 66.5455H74.8636C75.6146 66.5455 76.2644 66.8198 76.8132 67.3686C77.362 67.9174 77.6364 68.5672 77.6364 69.3182ZM99.8182 69.3182V74.8636C99.8182 75.6146 99.5438 76.2644 98.995 76.8132C98.4463 77.362 97.7964 77.6364 97.0455 77.6364H91.5C90.7491 77.6364 90.0992 77.362 89.5504 76.8132C89.0017 76.2644 88.7273 75.6146 88.7273 74.8636V69.3182C88.7273 68.5672 89.0017 67.9174 89.5504 67.3686C90.0992 66.8198 90.7491 66.5455 91.5 66.5455H97.0455C97.7964 66.5455 98.4463 66.8198 98.995 67.3686C99.5438 67.9174 99.8182 68.5672 99.8182 69.3182ZM77.6364 144.182H110.909V44.3636H88.7273V47.1364C88.7273 49.447 87.9186 51.411 86.3011 53.0284C84.6837 54.6458 82.7197 55.4545 80.4091 55.4545H41.5909C39.2803 55.4545 37.3163 54.6458 35.6989 53.0284C34.0814 51.411 33.2727 49.447 33.2727 47.1364V44.3636H11.0909V144.182H44.3636V124.773C44.3636 124.022 44.638 123.372 45.1868 122.823C45.7356 122.274 46.3854 122 47.1364 122H74.8636C75.6146 122 76.2644 122.274 76.8132 122.823C77.362 123.372 77.6364 124.022 77.6364 124.773V144.182ZM77.6364 41.5909V13.8636C77.6364 13.1127 77.362 12.4628 76.8132 11.9141C76.2644 11.3653 75.6146 11.0909 74.8636 11.0909H69.3182C68.5672 11.0909 67.9174 11.3653 67.3686 11.9141C66.8198 12.4628 66.5455 13.1127 66.5455 13.8636V22.1818H55.4545V13.8636C55.4545 13.1127 55.1802 12.4628 54.6314 11.9141C54.0826 11.3653 53.4328 11.0909 52.6818 11.0909H47.1364C46.3854 11.0909 45.7356 11.3653 45.1868 11.9141C44.638 12.4628 44.3636 13.1127 44.3636 13.8636V41.5909C44.3636 42.3419 44.638 42.9917 45.1868 43.5405C45.7356 44.0893 46.3854 44.3636 47.1364 44.3636H52.6818C53.4328 44.3636 54.0826 44.0893 54.6314 43.5405C55.1802 42.9917 55.4545 42.3419 55.4545 41.5909V33.2727H66.5455V41.5909C66.5455 42.3419 66.8198 42.9917 67.3686 43.5405C67.9174 44.0893 68.5672 44.3636 69.3182 44.3636H74.8636C75.6146 44.3636 76.2644 44.0893 76.8132 43.5405C77.362 42.9917 77.6364 42.3419 77.6364 41.5909ZM122 38.8182V149.727C122 151.229 121.451 152.529 120.354 153.626C119.256 154.724 117.956 155.273 116.455 155.273H5.54545C4.04356 155.273 2.74384 154.724 1.64631 153.626C0.548769 152.529 0 151.229 0 149.727V38.8182C0 37.3163 0.548769 36.0166 1.64631 34.919C2.74384 33.8215 4.04356 33.2727 5.54545 33.2727H33.2727V8.31818C33.2727 6.00758 34.0814 4.04356 35.6989 2.42614C37.3163 0.808712 39.2803 0 41.5909 0H80.4091C82.7197 0 84.6837 0.808712 86.3011 2.42614C87.9186 4.04356 88.7273 6.00758 88.7273 8.31818V33.2727H116.455C117.956 33.2727 119.256 33.8215 120.354 34.919C121.451 36.0166 122 37.3163 122 38.8182Z" fill="white"/>
</g>
<defs>
<clipPath id="clip0_24_3">
<rect width="122" height="155.273" fill="white"/>
</clipPath>
</defs>
</svg>
