<svg width="18" height="19" viewBox="0 0 18 19" fill="none" xmlns="http://www.w3.org/2000/svg">
  <g clip-path="url(#clip0_14_254)">
    <path
      d="M9.15161 5.00781C11.6125 5.00781 13.6438 7.03906 13.6438 9.5C13.6438 12 11.6125 13.9922 9.15161 13.9922C6.65161 13.9922 4.65943 12 4.65943 9.5C4.65943 7.03906 6.65161 5.00781 9.15161 5.00781ZM9.15161 12.4297C10.7531 12.4297 12.0422 11.1406 12.0422 9.5C12.0422 7.89844 10.7531 6.60938 9.15161 6.60938C7.51099 6.60938 6.22193 7.89844 6.22193 9.5C6.22193 11.1406 7.55005 12.4297 9.15161 12.4297ZM14.8547 4.85156C14.8547 5.4375 14.3859 5.90625 13.8 5.90625C13.2141 5.90625 12.7453 5.4375 12.7453 4.85156C12.7453 4.26562 13.2141 3.79688 13.8 3.79688C14.3859 3.79688 14.8547 4.26562 14.8547 4.85156ZM17.8235 5.90625C17.9017 7.35156 17.9017 11.6875 17.8235 13.1328C17.7454 14.5391 17.4328 15.75 16.4172 16.8047C15.4016 17.8203 14.1516 18.1328 12.7453 18.2109C11.3 18.2891 6.96411 18.2891 5.5188 18.2109C4.11255 18.1328 2.90161 17.8203 1.84693 16.8047C0.831299 15.75 0.518799 14.5391 0.440674 13.1328C0.362549 11.6875 0.362549 7.35156 0.440674 5.90625C0.518799 4.5 0.831299 3.25 1.84693 2.23438C2.90161 1.21875 4.11255 0.90625 5.5188 0.828125C6.96411 0.75 11.3 0.75 12.7453 0.828125C14.1516 0.90625 15.4016 1.21875 16.4172 2.23438C17.4328 3.25 17.7454 4.5 17.8235 5.90625ZM15.9484 14.6562C16.4172 13.5234 16.3 10.7891 16.3 9.5C16.3 8.25 16.4172 5.51562 15.9484 4.34375C15.6359 3.60156 15.05 2.97656 14.3078 2.70312C13.1359 2.23438 10.4016 2.35156 9.15161 2.35156C7.86255 2.35156 5.12818 2.23438 3.99536 2.70312C3.21411 3.01562 2.62818 3.60156 2.31568 4.34375C1.84693 5.51562 1.96411 8.25 1.96411 9.5C1.96411 10.7891 1.84693 13.5234 2.31568 14.6562C2.62818 15.4375 3.21411 16.0234 3.99536 16.3359C5.12818 16.8047 7.86255 16.6875 9.15161 16.6875C10.4016 16.6875 13.1359 16.8047 14.3078 16.3359C15.05 16.0234 15.675 15.4375 15.9484 14.6562Z"
      fill="#5388BA" />
  </g>
  <defs>
    <clipPath id="clip0_14_254">
      <rect width="18" height="19" fill="white" />
    </clipPath>
  </defs>
</svg>